<mxfile host="65bd71144e">
    <diagram id="q2Cbs21cbw6nmlhCZr5I" name="Page-1">
        <mxGraphModel dx="630" dy="799" grid="1" gridSize="10" guides="1" tooltips="1" connect="1" arrows="1" fold="1" page="1" pageScale="1" pageWidth="827" pageHeight="1169" math="0" shadow="0">
            <root>
                <mxCell id="0"/>
                <mxCell id="1" parent="0"/>
                <mxCell id="2" value="DemoApp" style="shape=ext;double=1;rounded=1;whiteSpace=wrap;html=1;fillColor=#f9f7ed;strokeColor=#36393d;shadow=1;verticalAlign=top;align=left;fontColor=#000000;spacingLeft=40;spacingTop=-2;" parent="1" vertex="1">
                    <mxGeometry x="60" y="290" width="770" height="420" as="geometry"/>
                </mxCell>
                <mxCell id="3" value="&lt;font color=&quot;#000000&quot;&gt;LambdaStack&lt;/font&gt;" style="whiteSpace=wrap;html=1;shadow=0;rounded=1;align=left;fillColor=#eeeeee;strokeColor=#36393d;verticalAlign=top;labelPosition=center;verticalLabelPosition=middle;horizontal=1;spacingLeft=15;spacingTop=-3;" parent="1" vertex="1">
                    <mxGeometry x="590" y="326" width="210" height="360" as="geometry"/>
                </mxCell>
                <mxCell id="19" style="edgeStyle=none;jumpStyle=none;html=1;exitX=1;exitY=0.5;exitDx=0;exitDy=0;entryX=0;entryY=0.5;entryDx=0;entryDy=0;shadow=0;fontColor=#000000;startArrow=none;startFill=0;endArrow=block;endFill=1;sourcePerimeterSpacing=74;targetPerimeterSpacing=53;strokeColor=#000000;strokeWidth=2;" edge="1" parent="1" source="4" target="3">
                    <mxGeometry relative="1" as="geometry"/>
                </mxCell>
                <mxCell id="4" value="&lt;font color=&quot;#000000&quot;&gt;ModelServingStack&lt;br&gt;&lt;/font&gt;" style="whiteSpace=wrap;html=1;shadow=0;rounded=1;align=left;fillColor=#eeeeee;strokeColor=#36393d;verticalAlign=top;labelPosition=center;verticalLabelPosition=middle;horizontal=1;spacingLeft=15;spacingTop=-3;" parent="1" vertex="1">
                    <mxGeometry x="340" y="326" width="210" height="360" as="geometry"/>
                </mxCell>
                <mxCell id="18" style="edgeStyle=none;jumpStyle=none;html=1;exitX=1;exitY=0.5;exitDx=0;exitDy=0;entryX=0;entryY=0.5;entryDx=0;entryDy=0;shadow=0;fontColor=#000000;startArrow=none;startFill=0;endArrow=block;endFill=1;sourcePerimeterSpacing=74;targetPerimeterSpacing=53;strokeColor=#000000;strokeWidth=2;" edge="1" parent="1" source="5" target="4">
                    <mxGeometry relative="1" as="geometry"/>
                </mxCell>
                <mxCell id="5" value="&lt;font color=&quot;#000000&quot;&gt;ModelBuildingStack&lt;/font&gt;" style="whiteSpace=wrap;html=1;shadow=0;rounded=1;align=left;fillColor=#eeeeee;strokeColor=#36393d;verticalAlign=top;labelPosition=center;verticalLabelPosition=middle;horizontal=1;spacingLeft=15;spacingTop=-3;" parent="1" vertex="1">
                    <mxGeometry x="90" y="326" width="210" height="360" as="geometry"/>
                </mxCell>
                <mxCell id="8" value="" style="edgeStyle=none;html=1;fontColor=#000000;" parent="1" source="6" target="7" edge="1">
                    <mxGeometry relative="1" as="geometry"/>
                </mxCell>
                <mxCell id="9" style="html=1;exitX=0.5;exitY=1;exitDx=0;exitDy=0;exitPerimeter=0;entryX=0.5;entryY=0;entryDx=0;entryDy=0;entryPerimeter=0;fontColor=#000000;fillColor=#f0a30a;strokeColor=#000000;targetPerimeterSpacing=10;sourcePerimeterSpacing=10;endArrow=none;endFill=0;startArrow=none;startFill=0;shadow=0;strokeWidth=2;jumpStyle=none;" parent="1" source="6" target="7" edge="1">
                    <mxGeometry relative="1" as="geometry"/>
                </mxCell>
                <mxCell id="6" value="Lambda" style="sketch=0;points=[[0,0,0],[0.25,0,0],[0.5,0,0],[0.75,0,0],[1,0,0],[0,1,0],[0.25,1,0],[0.5,1,0],[0.75,1,0],[1,1,0],[0,0.25,0],[0,0.5,0],[0,0.75,0],[1,0.25,0],[1,0.5,0],[1,0.75,0]];outlineConnect=0;fontColor=#232F3E;gradientColor=#F78E04;gradientDirection=north;fillColor=#D05C17;strokeColor=#ffffff;dashed=0;verticalLabelPosition=top;verticalAlign=bottom;align=center;html=1;fontSize=12;fontStyle=0;aspect=fixed;shape=mxgraph.aws4.resourceIcon;resIcon=mxgraph.aws4.lambda;rounded=1;shadow=0;labelPosition=center;" parent="1" vertex="1">
                    <mxGeometry x="612.5" y="420" width="70" height="70" as="geometry"/>
                </mxCell>
                <mxCell id="7" value="Api" style="sketch=0;points=[[0,0,0],[0.25,0,0],[0.5,0,0],[0.75,0,0],[1,0,0],[0,1,0],[0.25,1,0],[0.5,1,0],[0.75,1,0],[1,1,0],[0,0.25,0],[0,0.5,0],[0,0.75,0],[1,0.25,0],[1,0.5,0],[1,0.75,0]];outlineConnect=0;fontColor=#232F3E;gradientColor=#945DF2;gradientDirection=north;fillColor=#5A30B5;strokeColor=#ffffff;dashed=0;verticalLabelPosition=bottom;verticalAlign=top;align=center;html=1;fontSize=12;fontStyle=0;aspect=fixed;shape=mxgraph.aws4.resourceIcon;resIcon=mxgraph.aws4.api_gateway;rounded=1;shadow=0;" parent="1" vertex="1">
                    <mxGeometry x="610" y="555" width="75" height="75" as="geometry"/>
                </mxCell>
                <mxCell id="34" style="edgeStyle=orthogonalEdgeStyle;curved=1;jumpStyle=none;html=1;exitX=0;exitY=0.5;exitDx=0;exitDy=0;exitPerimeter=0;entryX=1;entryY=0.5;entryDx=0;entryDy=0;entryPerimeter=0;shadow=0;fontColor=#000000;startArrow=none;startFill=0;endArrow=blockThin;endFill=1;sourcePerimeterSpacing=10;targetPerimeterSpacing=10;strokeColor=#000000;strokeWidth=2;elbow=vertical;" edge="1" parent="1" source="10" target="6">
                    <mxGeometry relative="1" as="geometry"/>
                </mxCell>
                <mxCell id="10" value="Handler Code" style="verticalLabelPosition=top;html=1;verticalAlign=bottom;align=center;strokeColor=none;fillColor=#00BEF2;shape=mxgraph.azure.code_file;pointerEvents=1;rounded=1;shadow=0;fontColor=#000000;labelPosition=center;" parent="1" vertex="1">
                    <mxGeometry x="720" y="420" width="70" height="70" as="geometry"/>
                </mxCell>
                <mxCell id="12" value="Container" style="sketch=0;aspect=fixed;html=1;points=[];align=center;image;fontSize=12;image=img/lib/mscae/Docker.svg;rounded=1;shadow=1;fontColor=#000000;labelBackgroundColor=none;labelPosition=center;verticalLabelPosition=top;verticalAlign=bottom;" parent="1" vertex="1">
                    <mxGeometry x="160.86" y="485" width="68.29" height="56" as="geometry"/>
                </mxCell>
                <mxCell id="24" style="edgeStyle=none;jumpStyle=none;html=1;exitX=1;exitY=0.5;exitDx=0;exitDy=0;exitPerimeter=0;shadow=0;fontColor=#000000;startArrow=none;startFill=0;endArrow=block;endFill=1;sourcePerimeterSpacing=10;targetPerimeterSpacing=10;strokeColor=#000000;strokeWidth=2;dashed=1;" edge="1" parent="1" source="13">
                    <mxGeometry relative="1" as="geometry">
                        <mxPoint x="400.2585739460485" y="396" as="targetPoint"/>
                    </mxGeometry>
                </mxCell>
                <mxCell id="27" style="edgeStyle=orthogonalEdgeStyle;jumpStyle=none;html=1;exitX=0;exitY=0.5;exitDx=0;exitDy=0;exitPerimeter=0;shadow=0;fontColor=#000000;startArrow=blockThin;startFill=1;endArrow=none;endFill=0;sourcePerimeterSpacing=10;targetPerimeterSpacing=10;strokeColor=#000000;strokeWidth=2;elbow=vertical;curved=1;entryX=0.083;entryY=-0.018;entryDx=0;entryDy=0;entryPerimeter=0;" edge="1" parent="1" source="13" target="12">
                    <mxGeometry relative="1" as="geometry">
                        <Array as="points">
                            <mxPoint x="130" y="396"/>
                            <mxPoint x="130" y="484"/>
                        </Array>
                    </mxGeometry>
                </mxCell>
                <mxCell id="13" value="Registry" style="sketch=0;points=[[0,0,0],[0.25,0,0],[0.5,0,0],[0.75,0,0],[1,0,0],[0,1,0],[0.25,1,0],[0.5,1,0],[0.75,1,0],[1,1,0],[0,0.25,0],[0,0.5,0],[0,0.75,0],[1,0.25,0],[1,0.5,0],[1,0.75,0]];outlineConnect=0;fontColor=#232F3E;gradientColor=#F78E04;gradientDirection=north;fillColor=#D05C17;strokeColor=#ffffff;dashed=0;verticalLabelPosition=bottom;verticalAlign=top;align=center;html=1;fontSize=12;fontStyle=0;aspect=fixed;shape=mxgraph.aws4.resourceIcon;resIcon=mxgraph.aws4.ecr;rounded=1;shadow=0;" parent="1" vertex="1">
                    <mxGeometry x="160" y="361" width="70" height="70" as="geometry"/>
                </mxCell>
                <mxCell id="28" style="edgeStyle=orthogonalEdgeStyle;curved=1;jumpStyle=none;html=1;exitX=0;exitY=0.5;exitDx=0;exitDy=0;exitPerimeter=0;entryX=0.009;entryY=0.214;entryDx=0;entryDy=0;entryPerimeter=0;shadow=0;fontColor=#000000;startArrow=none;startFill=0;endArrow=blockThin;endFill=1;sourcePerimeterSpacing=10;targetPerimeterSpacing=10;strokeColor=#000000;strokeWidth=2;elbow=vertical;" edge="1" parent="1" source="14" target="12">
                    <mxGeometry relative="1" as="geometry">
                        <Array as="points">
                            <mxPoint x="130" y="618"/>
                            <mxPoint x="130" y="497"/>
                        </Array>
                    </mxGeometry>
                </mxCell>
                <mxCell id="14" value="Model Code" style="verticalLabelPosition=top;html=1;verticalAlign=bottom;align=center;strokeColor=none;fillColor=#00BEF2;shape=mxgraph.azure.code_file;pointerEvents=1;rounded=1;shadow=0;fontColor=#000000;labelPosition=center;" parent="1" vertex="1">
                    <mxGeometry x="165.01" y="585" width="60" height="65" as="geometry"/>
                </mxCell>
                <mxCell id="29" value="Endpoint" style="sketch=0;points=[[0,0,0],[0.25,0,0],[0.5,0,0],[0.75,0,0],[1,0,0],[0,1,0],[0.25,1,0],[0.5,1,0],[0.75,1,0],[1,1,0],[0,0.25,0],[0,0.5,0],[0,0.75,0],[1,0.25,0],[1,0.5,0],[1,0.75,0]];outlineConnect=0;fontColor=#232F3E;gradientColor=#4AB29A;gradientDirection=north;fillColor=#116D5B;strokeColor=#ffffff;dashed=0;verticalLabelPosition=bottom;verticalAlign=top;align=center;html=1;fontSize=12;fontStyle=0;aspect=fixed;shape=mxgraph.aws4.resourceIcon;resIcon=mxgraph.aws4.sagemaker;rounded=1;shadow=0;labelBackgroundColor=none;" vertex="1" parent="1">
                    <mxGeometry x="406" y="581.75" width="71.5" height="71.5" as="geometry"/>
                </mxCell>
                <mxCell id="33" style="edgeStyle=orthogonalEdgeStyle;curved=1;jumpStyle=none;html=1;exitX=1;exitY=0.75;exitDx=0;exitDy=0;exitPerimeter=0;entryX=1;entryY=0.25;entryDx=0;entryDy=0;entryPerimeter=0;shadow=0;fontColor=#000000;startArrow=none;startFill=0;endArrow=blockThin;endFill=1;sourcePerimeterSpacing=10;targetPerimeterSpacing=10;strokeColor=#000000;strokeWidth=2;elbow=vertical;" edge="1" parent="1" source="30" target="29">
                    <mxGeometry relative="1" as="geometry">
                        <Array as="points">
                            <mxPoint x="510" y="524"/>
                            <mxPoint x="510" y="600"/>
                        </Array>
                    </mxGeometry>
                </mxCell>
                <mxCell id="30" value="Endpoint Config" style="sketch=0;points=[[0,0,0],[0.25,0,0],[0.5,0,0],[0.75,0,0],[1,0,0],[0,1,0],[0.25,1,0],[0.5,1,0],[0.75,1,0],[1,1,0],[0,0.25,0],[0,0.5,0],[0,0.75,0],[1,0.25,0],[1,0.5,0],[1,0.75,0]];outlineConnect=0;fontColor=#232F3E;gradientColor=#4AB29A;gradientDirection=north;fillColor=#116D5B;strokeColor=#ffffff;dashed=0;verticalLabelPosition=bottom;verticalAlign=top;align=center;html=1;fontSize=12;fontStyle=0;aspect=fixed;shape=mxgraph.aws4.resourceIcon;resIcon=mxgraph.aws4.sagemaker;rounded=1;shadow=0;labelBackgroundColor=none;" vertex="1" parent="1">
                    <mxGeometry x="406" y="470.25" width="71.5" height="71.5" as="geometry"/>
                </mxCell>
                <mxCell id="32" style="edgeStyle=orthogonalEdgeStyle;curved=1;jumpStyle=none;html=1;exitX=1;exitY=0.5;exitDx=0;exitDy=0;exitPerimeter=0;entryX=1;entryY=0.25;entryDx=0;entryDy=0;entryPerimeter=0;shadow=0;fontColor=#000000;startArrow=none;startFill=0;endArrow=blockThin;endFill=1;sourcePerimeterSpacing=10;targetPerimeterSpacing=10;strokeColor=#000000;strokeWidth=2;elbow=vertical;" edge="1" parent="1" source="31" target="30">
                    <mxGeometry relative="1" as="geometry">
                        <Array as="points">
                            <mxPoint x="510" y="397"/>
                            <mxPoint x="510" y="488"/>
                        </Array>
                    </mxGeometry>
                </mxCell>
                <mxCell id="31" value="Model" style="sketch=0;points=[[0,0,0],[0.25,0,0],[0.5,0,0],[0.75,0,0],[1,0,0],[0,1,0],[0.25,1,0],[0.5,1,0],[0.75,1,0],[1,1,0],[0,0.25,0],[0,0.5,0],[0,0.75,0],[1,0.25,0],[1,0.5,0],[1,0.75,0]];outlineConnect=0;fontColor=#232F3E;gradientColor=#4AB29A;gradientDirection=north;fillColor=#116D5B;strokeColor=#ffffff;dashed=0;verticalLabelPosition=bottom;verticalAlign=top;align=center;html=1;fontSize=12;fontStyle=0;aspect=fixed;shape=mxgraph.aws4.resourceIcon;resIcon=mxgraph.aws4.sagemaker;rounded=1;shadow=0;labelBackgroundColor=none;" vertex="1" parent="1">
                    <mxGeometry x="406" y="361" width="71.5" height="71.5" as="geometry"/>
                </mxCell>
            </root>
        </mxGraphModel>
    </diagram>
</mxfile>
